<svg xmlns="http://www.w3.org/2000/svg" viewBox="0 0 1200 760" role="img" aria-label="Modern domestic consumer unit">
  <defs>
    <linearGradient id="sky" x1="0" y1="0" x2="0" y2="1">
      <stop offset="0" stop-color="#d9edf9"/>
      <stop offset="1" stop-color="#f4f8fb"/>
    </linearGradient>
    <filter id="shadow" x="-20%" y="-20%" width="140%" height="140%">
      <feDropShadow dx="0" dy="16" stdDeviation="18" flood-color="#092749" flood-opacity=".18"/>
    </filter>
    <pattern id="brick" width="90" height="46" patternUnits="userSpaceOnUse">
      <rect width="90" height="46" fill="#b55a41"/>
      <path d="M0 0H90M0 46H90M45 0V46" stroke="#8f3e2f" stroke-width="4" opacity=".65"/>
    </pattern>
  </defs>
  <rect width="1200" height="760" fill="#f1eee9"/><rect x="160" y="95" width="880" height="520" rx="24" fill="#fff" filter="url(#shadow)"/><rect x="235" y="175" width="730" height="350" rx="12" fill="#eef3f8" stroke="#d2dde8" stroke-width="8"/><g><rect x="275" y="250" width="54" height="150" rx="7" fill="#fff" stroke="#93a3b3" stroke-width="5"/><rect x="286" y="282" width="32" height="58" fill="#10233f"/><rect x="363" y="250" width="54" height="150" rx="7" fill="#fff" stroke="#93a3b3" stroke-width="5"/><rect x="374" y="282" width="32" height="58" fill="#10233f"/><rect x="451" y="250" width="54" height="150" rx="7" fill="#fff" stroke="#93a3b3" stroke-width="5"/><rect x="462" y="282" width="32" height="58" fill="#10233f"/><rect x="539" y="250" width="54" height="150" rx="7" fill="#fff" stroke="#93a3b3" stroke-width="5"/><rect x="550" y="282" width="32" height="58" fill="#10233f"/><rect x="627" y="250" width="54" height="150" rx="7" fill="#fff" stroke="#93a3b3" stroke-width="5"/><rect x="638" y="282" width="32" height="58" fill="#10233f"/><rect x="715" y="250" width="54" height="150" rx="7" fill="#fff" stroke="#93a3b3" stroke-width="5"/><rect x="726" y="282" width="32" height="58" fill="#10233f"/><rect x="803" y="250" width="54" height="150" rx="7" fill="#fff" stroke="#93a3b3" stroke-width="5"/><rect x="814" y="282" width="32" height="58" fill="#10233f"/></g><rect x="340" y="440" width="520" height="34" rx="8" fill="#5cc24a"/>
</svg>