<svg xmlns="http://www.w3.org/2000/svg" viewBox="0 0 900 560" role="img" aria-label="Consumer unit project">
  <defs>
    <linearGradient id="sky" x1="0" y1="0" x2="0" y2="1">
      <stop offset="0" stop-color="#dceaf7"/>
      <stop offset="1" stop-color="#e7eef6"/>
    </linearGradient>
    <filter id="shadow" x="-20%" y="-20%" width="140%" height="140%">
      <feDropShadow dx="0" dy="10" stdDeviation="12" flood-color="#071f3d" flood-opacity=".18"/>
    </filter>
  </defs>
  <rect width="900" height="560" fill="url(#sky)"/>
  
<rect width="900" height="560" fill="#f2eee8"/>
<rect x="115" y="80" width="670" height="385" rx="16" fill="#fff" filter="url(#shadow)"/>
<rect x="170" y="135" width="560" height="270" rx="10" fill="#eef2f6" stroke="#d0d9e3" stroke-width="6"/>
<rect x="190" y="185" width="45" height="120" rx="5" fill="#ffffff" stroke="#92a0ad" stroke-width="4"/><rect x="198" y="210" width="29" height="45" fill="#10233f"/>
<rect x="265" y="185" width="45" height="120" rx="5" fill="#ffffff" stroke="#92a0ad" stroke-width="4"/><rect x="273" y="210" width="29" height="45" fill="#10233f"/>
<rect x="340" y="185" width="45" height="120" rx="5" fill="#ffffff" stroke="#92a0ad" stroke-width="4"/><rect x="348" y="210" width="29" height="45" fill="#10233f"/>
<rect x="415" y="185" width="45" height="120" rx="5" fill="#ffffff" stroke="#92a0ad" stroke-width="4"/><rect x="423" y="210" width="29" height="45" fill="#10233f"/>
<rect x="490" y="185" width="45" height="120" rx="5" fill="#ffffff" stroke="#92a0ad" stroke-width="4"/><rect x="498" y="210" width="29" height="45" fill="#10233f"/>
<rect x="565" y="185" width="45" height="120" rx="5" fill="#ffffff" stroke="#92a0ad" stroke-width="4"/><rect x="573" y="210" width="29" height="45" fill="#10233f"/>
<rect x="640" y="185" width="45" height="120" rx="5" fill="#ffffff" stroke="#92a0ad" stroke-width="4"/><rect x="648" y="210" width="29" height="45" fill="#10233f"/>
<rect x="225" y="330" width="450" height="28" rx="6" fill="#39a935"/>

</svg>