<svg xmlns="http://www.w3.org/2000/svg" viewBox="0 0 900 560" role="img" aria-label="Air conditioning outdoor unit project">
  <defs>
    <linearGradient id="sky" x1="0" y1="0" x2="0" y2="1">
      <stop offset="0" stop-color="#dceaf7"/>
      <stop offset="1" stop-color="#e7eef6"/>
    </linearGradient>
    <filter id="shadow" x="-20%" y="-20%" width="140%" height="140%">
      <feDropShadow dx="0" dy="10" stdDeviation="12" flood-color="#071f3d" flood-opacity=".18"/>
    </filter>
  </defs>
  <rect width="900" height="560" fill="url(#sky)"/>
  
<rect width="900" height="560" fill="#b65a3d"/>
<g stroke="#8e3f2e" stroke-width="5">
<line x1="0" y1="40" x2="900" y2="40"/>
<line x1="0" y1="95" x2="900" y2="95"/>
<line x1="0" y1="150" x2="900" y2="150"/>
<line x1="0" y1="205" x2="900" y2="205"/>
<line x1="0" y1="260" x2="900" y2="260"/>
<line x1="0" y1="315" x2="900" y2="315"/>
<line x1="0" y1="370" x2="900" y2="370"/>
<line x1="0" y1="425" x2="900" y2="425"/>
<line x1="0" y1="480" x2="900" y2="480"/>
<line x1="0" y1="535" x2="900" y2="535"/>
<line x1="80" y1="0" x2="80" y2="560"/>
<line x1="240" y1="0" x2="240" y2="560"/>
<line x1="400" y1="0" x2="400" y2="560"/>
<line x1="560" y1="0" x2="560" y2="560"/>
<line x1="720" y1="0" x2="720" y2="560"/>
<line x1="880" y1="0" x2="880" y2="560"/>
</g>

<rect x="190" y="145" width="360" height="150" rx="18" fill="#f7f9fb" filter="url(#shadow)"/>
<rect x="220" y="245" width="300" height="15" rx="7" fill="#d7dee8"/>
<circle cx="500" cy="185" r="12" fill="#48a23f"/>
<text x="370" y="215" font-family="Arial" font-size="34" font-weight="700" text-anchor="middle" fill="#10233f">AIR CON</text>
<rect x="610" y="320" width="150" height="115" rx="10" fill="#25384f" filter="url(#shadow)"/>
<circle cx="685" cy="378" r="38" fill="none" stroke="#d6e0ea" stroke-width="12"/>
<path d="M550 245 C640 250 650 300 650 320" fill="none" stroke="#18293f" stroke-width="12"/>

</svg>