<svg xmlns="http://www.w3.org/2000/svg" viewBox="0 0 900 560" role="img" aria-label="Battery storage on brick wall">
  <defs>
    <linearGradient id="sky" x1="0" y1="0" x2="0" y2="1">
      <stop offset="0" stop-color="#dceaf7"/>
      <stop offset="1" stop-color="#e7eef6"/>
    </linearGradient>
    <filter id="shadow" x="-20%" y="-20%" width="140%" height="140%">
      <feDropShadow dx="0" dy="10" stdDeviation="12" flood-color="#071f3d" flood-opacity=".18"/>
    </filter>
  </defs>
  <rect width="900" height="560" fill="url(#sky)"/>
  
<rect width="900" height="560" fill="#b65a3d"/>
<g stroke="#8e3f2e" stroke-width="5">
<line x1="0" y1="40" x2="900" y2="40"/>
<line x1="0" y1="95" x2="900" y2="95"/>
<line x1="0" y1="150" x2="900" y2="150"/>
<line x1="0" y1="205" x2="900" y2="205"/>
<line x1="0" y1="260" x2="900" y2="260"/>
<line x1="0" y1="315" x2="900" y2="315"/>
<line x1="0" y1="370" x2="900" y2="370"/>
<line x1="0" y1="425" x2="900" y2="425"/>
<line x1="0" y1="480" x2="900" y2="480"/>
<line x1="0" y1="535" x2="900" y2="535"/>
<line x1="80" y1="0" x2="80" y2="560"/>
<line x1="240" y1="0" x2="240" y2="560"/>
<line x1="400" y1="0" x2="400" y2="560"/>
<line x1="560" y1="0" x2="560" y2="560"/>
<line x1="720" y1="0" x2="720" y2="560"/>
<line x1="880" y1="0" x2="880" y2="560"/>
</g>

<rect x="295" y="125" width="260" height="330" rx="24" fill="#f3f6f9" filter="url(#shadow)"/>
<rect x="330" y="170" width="190" height="80" rx="12" fill="#e0e8f0"/>
<rect x="330" y="280" width="190" height="120" rx="12" fill="#ffffff" stroke="#d0d9e3" stroke-width="4"/>
<rect x="365" y="315" width="120" height="42" rx="6" fill="#39a935"/>
<text x="425" y="210" font-family="Arial" font-size="27" font-weight="700" text-anchor="middle" fill="#10233f">BATTERY</text>

</svg>