<svg xmlns="http://www.w3.org/2000/svg" viewBox="0 0 1200 760" role="img" aria-label="Solar panels on a UK domestic roof">
  <defs>
    <linearGradient id="sky" x1="0" y1="0" x2="0" y2="1">
      <stop offset="0" stop-color="#d9edf9"/>
      <stop offset="1" stop-color="#f4f8fb"/>
    </linearGradient>
    <filter id="shadow" x="-20%" y="-20%" width="140%" height="140%">
      <feDropShadow dx="0" dy="16" stdDeviation="18" flood-color="#092749" flood-opacity=".18"/>
    </filter>
    <pattern id="brick" width="90" height="46" patternUnits="userSpaceOnUse">
      <rect width="90" height="46" fill="#b55a41"/>
      <path d="M0 0H90M0 46H90M45 0V46" stroke="#8f3e2f" stroke-width="4" opacity=".65"/>
    </pattern>
  </defs>
  
<rect width="1200" height="760" fill="url(#sky)"/>
<rect y="520" width="1200" height="240" fill="#596b55"/>
<g filter="url(#shadow)">
  <g transform="translate(30,175)">
    <rect width="255" height="330" fill="url(#brick)"/>
    <polygon points="-18,0 128,-104 275,0" fill="#374353"/>
    <rect x="42" y="90" width="56" height="78" fill="#e8f2f8" stroke="#fff" stroke-width="8"/>
    <rect x="155" y="90" width="56" height="78" fill="#e8f2f8" stroke="#fff" stroke-width="8"/>
    <rect x="106" y="210" width="66" height="120" fill="#102f52"/>
    <rect x="87" y="-45" width="142" height="54" fill="#0e2239" transform="rotate(-8 158 -18)"/>
  </g>
  <g transform="translate(310,145)">
    <rect width="275" height="360" fill="url(#brick)"/>
    <polygon points="-22,0 138,-116 298,0" fill="#404957"/>
    <rect x="45" y="106" width="62" height="84" fill="#e8f2f8" stroke="#fff" stroke-width="8"/>
    <rect x="170" y="106" width="62" height="84" fill="#e8f2f8" stroke="#fff" stroke-width="8"/>
    <rect x="112" y="230" width="72" height="130" fill="#102f52"/>
    <rect x="76" y="-51" width="165" height="62" fill="#0e2239" stroke="#5f7fa2" stroke-width="4" transform="rotate(-8 158 -18)"/>
  </g>
  <g transform="translate(615,175)">
    <rect width="255" height="330" fill="url(#brick)"/>
    <polygon points="-18,0 128,-104 275,0" fill="#374353"/>
    <rect x="42" y="90" width="56" height="78" fill="#e8f2f8" stroke="#fff" stroke-width="8"/>
    <rect x="155" y="90" width="56" height="78" fill="#e8f2f8" stroke="#fff" stroke-width="8"/>
    <rect x="106" y="210" width="66" height="120" fill="#102f52"/>
    <rect x="88" y="-46" width="142" height="55" fill="#0e2239" stroke="#5f7fa2" stroke-width="4" transform="rotate(-8 158 -18)"/>
  </g>
  <g transform="translate(895,190)">
    <rect width="245" height="315" fill="url(#brick)"/>
    <polygon points="-18,0 123,-98 265,0" fill="#4d4f54"/>
    <rect x="42" y="88" width="54" height="74" fill="#e8f2f8" stroke="#fff" stroke-width="8"/>
    <rect x="150" y="88" width="54" height="74" fill="#e8f2f8" stroke="#fff" stroke-width="8"/>
    <rect x="100" y="205" width="66" height="110" fill="#102f52"/>
  </g>
</g>
<path d="M0 610 C150 570 270 635 420 590 C600 540 715 635 870 585 C1020 535 1120 575 1200 552 L1200 760 L0 760Z" fill="#355d3c"/>
<rect x="382" y="88" width="200" height="76" fill="#0c2137" stroke="#9ab4cf" stroke-width="5" transform="rotate(-8 482 126)"/><g stroke="#9ab4cf" stroke-width="3"><line x1="420" y1="83" x2="408" y2="157"/><line x1="462" y1="78" x2="450" y2="153"/><line x1="504" y1="74" x2="492" y2="148"/><line x1="382" y1="126" x2="582" y2="99"/><line x1="377" y1="149" x2="577" y2="122"/></g>
</svg>