<svg xmlns="http://www.w3.org/2000/svg" viewBox="0 0 24 24"><rect width="24" height="24" rx="5" fill="#fff"/><path fill="#4285F4" d="M20.6 12.2c0-.7-.1-1.4-.2-2H12v3.8h4.8c-.2 1.2-.8 2.1-1.7 2.8v2.3h2.8c1.7-1.5 2.7-3.8 2.7-6.9z"/><path fill="#34A853" d="M12 21c2.4 0 4.4-.8 5.9-2.1l-2.8-2.3c-.8.5-1.8.8-3.1.8-2.3 0-4.2-1.5-4.9-3.6H4.2v2.4C5.6 19.1 8.6 21 12 21z"/><path fill="#FBBC05" d="M7.1 13.8c-.2-.5-.3-1.1-.3-1.8s.1-1.2.3-1.8V7.8H4.2C3.5 9.1 3.2 10.5 3.2 12s.4 2.9 1 4.2l2.9-2.4z"/><path fill="#EA4335" d="M12 6.6c1.3 0 2.5.5 3.4 1.3L18 5.3C16.4 3.9 14.4 3 12 3 8.6 3 5.6 4.9 4.2 7.8l2.9 2.4C7.8 8.1 9.7 6.6 12 6.6z"/></svg>