<svg xmlns="http://www.w3.org/2000/svg" viewBox="0 0 24 24"><rect width="24" height="24" rx="5" fill="#000"/><path fill="#25F4EE" d="M10.5 18.5c-2.3 0-4.1-1.8-4.1-4s1.8-4 4.1-4c.3 0 .6 0 .9.1v3c-.3-.1-.6-.2-.9-.2-.7 0-1.3.5-1.3 1.2s.6 1.2 1.3 1.2 1.3-.5 1.3-1.2V4.7h3c.2 1.7 1.5 3.1 3.2 3.4v3c-1.2-.1-2.3-.5-3.2-1.2v4.6c0 2.2-1.9 4-4.3 4z"/><path fill="#FE2C55" d="M11.2 19.2c-2.3 0-4.1-1.8-4.1-4s1.8-4 4.1-4c.3 0 .6 0 .9.1v3c-.3-.1-.6-.2-.9-.2-.7 0-1.3.5-1.3 1.2s.6 1.2 1.3 1.2 1.3-.5 1.3-1.2V5.4h3c.2 1.7 1.5 3.1 3.2 3.4v3c-1.2-.1-2.3-.5-3.2-1.2v4.6c0 2.2-1.9 4-4.3 4z"/></svg>