<svg xmlns="http://www.w3.org/2000/svg" viewBox="0 0 64 64" role="img" aria-label="WhatsApp">
  <circle cx="32" cy="32" r="30" fill="#25D366"/>
  <path fill="#fff" d="M18.3 48.6l2.1-7.7A23.4 23.4 0 0 1 17.2 29c0-12.1 9.8-21.9 21.9-21.9S61 16.9 61 29 51.2 50.9 39.1 50.9a22 22 0 0 1-11.1-3l-9.7.7zm10.1-4.7l.6.3a18.4 18.4 0 0 0 10 2.9c9.9 0 18-8.1 18-18s-8.1-18-18-18-18 8.1-18 18c0 3.6 1 7 3 9.9l.4.6-1.2 4.6 5.2-.3z"/>
  <path fill="#fff" d="M49.4 37.1c-.8-.4-4.6-2.3-5.3-2.5-.7-.3-1.2-.4-1.8.4-.5.8-2 2.5-2.5 3-.5.5-.9.6-1.7.2-.8-.4-3.2-1.2-6.1-3.8-2.3-2-3.8-4.5-4.2-5.3-.4-.8 0-1.2.3-1.6.3-.3.8-.9 1.1-1.3.4-.5.5-.8.8-1.3.3-.5.1-1-.1-1.4-.2-.4-1.8-4.3-2.4-5.9-.6-1.5-1.2-1.3-1.8-1.3h-1.5c-.5 0-1.4.2-2.1 1-.7.8-2.8 2.7-2.8 6.6s2.9 7.7 3.3 8.2c.4.5 5.7 8.7 13.8 12.2 1.9.8 3.4 1.3 4.6 1.7 1.9.6 3.7.5 5.1.3 1.6-.2 4.6-1.9 5.3-3.7.7-1.8.7-3.4.5-3.7-.2-.3-.7-.5-1.5-.9z"/>
</svg>