<svg xmlns="http://www.w3.org/2000/svg" viewBox="0 0 32 32">
<circle cx="16" cy="16" r="16" fill="#25D366"/>
<path fill="#fff" d="M23.3 18.9c-.4-.2-2.2-1.1-2.6-1.2-.3-.1-.6-.2-.8.2-.2.3-.9 1.2-1.1 1.4-.2.2-.4.3-.8.1-.4-.2-1.6-.6-3.1-2-.9-.8-1.6-1.9-1.8-2.2-.2-.4 0-.5.1-.7.1-.1.3-.4.4-.5.1-.2.2-.3.3-.5.1-.2 0-.4 0-.5 0-.1-.8-2-1.1-2.7-.3-.7-.6-.6-.8-.6h-.7c-.2 0-.5.1-.8.4-.3.3-1 1-1 2.5s1 2.9 1.2 3.1c.1.2 2 3.2 5 4.4 2.9 1.2 2.9.8 3.4.8.5-.1 1.7-.7 1.9-1.4.2-.7.2-1.3.1-1.4-.1-.1-.4-.2-.8-.4z"/>
<path fill="#fff" d="M22.8 9.2l-7.9 8-3-3 .9-.9 2.1 2.1 7-7z"/>
</svg>