<svg xmlns="http://www.w3.org/2000/svg" viewBox="0 0 64 64" aria-label="WhatsApp">
  <circle cx="32" cy="32" r="32" fill="#25D366"/>
  <path fill="#FFFFFF" d="M32.1 13.5c-10.2 0-18.5 8.1-18.5 18.2 0 3.2.9 6.3 2.5 9L13.5 50l9.6-2.5c2.7 1.5 5.8 2.3 9 2.3 10.2 0 18.5-8.1 18.5-18.2S42.3 13.5 32.1 13.5zm0 32.9c-2.9 0-5.6-.8-8-2.3l-.6-.4-5.7 1.5 1.5-5.5-.4-.6c-1.6-2.4-2.4-5.2-2.4-8 0-8.1 6.9-14.7 15.3-14.7s15.3 6.6 15.3 14.7-6.9 15.3-15 15.3z"/>
  <path fill="#FFFFFF" d="M40.6 35.8c-.5-.3-3-1.5-3.5-1.7-.5-.2-.9-.3-1.3.3-.4.5-1.5 1.7-1.8 2.1-.3.4-.7.4-1.2.1-.5-.3-2.2-.8-4.1-2.5-1.5-1.4-2.5-3-2.8-3.5-.3-.5 0-.8.2-1.1.2-.2.5-.6.8-.9.3-.3.4-.5.6-.9.2-.4.1-.7 0-1-.1-.3-1.3-3.1-1.8-4.2-.5-1.1-.9-.9-1.3-.9h-1.1c-.4 0-1 .1-1.5.7-.5.5-2 1.9-2 4.6s2.1 5.4 2.4 5.8c.3.4 4.1 6.2 9.9 8.7 1.4.6 2.4.9 3.3 1.2 1.4.4 2.6.4 3.6.2 1.1-.2 3-1.2 3.4-2.4.4-1.2.4-2.2.3-2.4-.2-.2-.6-.4-1.1-.7z"/>
</svg>