<svg xmlns="http://www.w3.org/2000/svg" viewBox="0 0 32 32">
  <path fill="#25D366" d="M16 .4C7.4.4.5 7.2.5 15.7c0 3 0.9 5.8 2.5 8.2L.4 31.6l7.9-2.5c2.3 1.3 4.9 2 7.7 2h.1c8.5 0 15.4-6.9 15.4-15.4C31.5 7.2 24.6.4 16 .4z"/>
  <path fill="#FFF" d="M24.1 19.5c-.4-.2-2.6-1.3-3-1.5-.4-.1-.6-.2-.9.2s-1 1.5-1.3 1.7c-.2.3-.5.3-.9.1-2.4-1.2-4-2.1-5.6-4.8-.4-.7.4-.6 1.1-2 .1-.2.1-.5 0-.7-.1-.2-.9-2.2-1.2-3-.3-.8-.7-.7-.9-.7h-.8c-.3 0-.7.1-1 .5s-1.4 1.4-1.4 3.4 1.4 4 1.6 4.3c.2.3 2.8 4.3 6.8 6 .9.4 1.7.7 2.2.9.9.3 1.8.3 2.5.2.8-.1 2.6-1.1 2.9-2.1.4-1 .4-1.9.3-2.1-.1-.2-.4-.3-.8-.5z"/>
</svg>